<svg width="260" height="50" viewBox="0 0 260 50" fill="none" xmlns="http://www.w3.org/2000/svg">
<path d="M38.7411 5.43032L33 31.0304L60.6246 50L205.026 46.7662L227 31.671L215.886 13.1431L178.069 0L38.7411 5.43032Z" fill="#EFECEA"/>
<path d="M52.3165 35V31.448H58.1725C59.2178 31.448 60.0285 31.128 60.6045 30.488C61.2018 29.848 61.5005 29.0907 61.5005 28.216C61.5005 27.6187 61.3725 27.0747 61.1165 26.584C60.8605 26.0933 60.4765 25.7093 59.9645 25.432C59.4738 25.1333 58.8765 24.984 58.1725 24.984H52.3165V21.464H57.6925C58.5885 21.464 59.3032 21.24 59.8365 20.792C60.3912 20.344 60.6685 19.672 60.6685 18.776C60.6685 17.8587 60.3912 17.176 59.8365 16.728C59.3032 16.28 58.5885 16.056 57.6925 16.056H52.3165V12.504H58.2045C59.6978 12.504 60.9458 12.7813 61.9485 13.336C62.9725 13.8693 63.7405 14.584 64.2525 15.48C64.7645 16.3547 65.0205 17.3147 65.0205 18.36C65.0205 19.64 64.6258 20.7493 63.8365 21.688C63.0685 22.6053 61.9378 23.288 60.4445 23.736L60.6365 22.328C62.3005 22.7973 63.5805 23.576 64.4765 24.664C65.3938 25.7307 65.8525 27.0213 65.8525 28.536C65.8525 29.7307 65.5538 30.8187 64.9565 31.8C64.3805 32.76 63.5272 33.5387 62.3965 34.136C61.2872 34.712 59.9325 35 58.3325 35H52.3165ZM49.1165 35V12.504H53.4365V35H49.1165ZM75.32 35.32C73.912 35.32 72.6427 34.968 71.512 34.264C70.3813 33.56 69.496 32.6 68.856 31.384C68.216 30.168 67.896 28.8027 67.896 27.288C67.896 25.752 68.216 24.376 68.856 23.16C69.496 21.944 70.3813 20.984 71.512 20.28C72.6427 19.576 73.912 19.224 75.32 19.224C76.4293 19.224 77.4213 19.448 78.296 19.896C79.1707 20.344 79.864 20.9733 80.376 21.784C80.9093 22.5733 81.1973 23.4693 81.24 24.472V30.04C81.1973 31.064 80.9093 31.9707 80.376 32.76C79.864 33.5493 79.1707 34.1787 78.296 34.648C77.4213 35.096 76.4293 35.32 75.32 35.32ZM76.088 31.448C77.2613 31.448 78.2107 31.064 78.936 30.296C79.6613 29.5067 80.024 28.4933 80.024 27.256C80.024 26.4453 79.8533 25.7307 79.512 25.112C79.192 24.472 78.7333 23.9813 78.136 23.64C77.56 23.2773 76.8773 23.096 76.088 23.096C75.32 23.096 74.6373 23.2773 74.04 23.64C73.464 23.9813 73.0053 24.472 72.664 25.112C72.344 25.7307 72.184 26.4453 72.184 27.256C72.184 28.088 72.344 28.824 72.664 29.464C73.0053 30.0827 73.464 30.5733 74.04 30.936C74.6373 31.2773 75.32 31.448 76.088 31.448ZM79.8 35V30.84L80.472 27.064L79.8 23.352V19.544H83.96V35H79.8ZM94.2605 35.32C92.8952 35.32 91.6792 35.032 90.6125 34.456C89.5672 33.88 88.7458 33.08 88.1485 32.056C87.5512 31.032 87.2525 29.848 87.2525 28.504V19.544H91.4765V28.408C91.4765 29.048 91.5832 29.6027 91.7965 30.072C92.0098 30.52 92.3298 30.8613 92.7565 31.096C93.1832 31.3307 93.6845 31.448 94.2605 31.448C95.1352 31.448 95.8178 31.1813 96.3085 30.648C96.7992 30.1147 97.0445 29.368 97.0445 28.408V19.544H101.237V28.504C101.237 29.8693 100.938 31.064 100.341 32.088C99.7645 33.112 98.9432 33.912 97.8765 34.488C96.8312 35.0427 95.6258 35.32 94.2605 35.32ZM104.575 35V19.544H108.767V35H104.575ZM114.655 35V25.88C114.655 24.984 114.367 24.2907 113.791 23.8C113.236 23.288 112.543 23.032 111.711 23.032C111.156 23.032 110.655 23.1493 110.207 23.384C109.759 23.5973 109.407 23.9173 109.151 24.344C108.895 24.7707 108.767 25.2827 108.767 25.88L107.135 25.08C107.135 23.8853 107.391 22.8507 107.903 21.976C108.436 21.1013 109.151 20.4293 110.047 19.96C110.943 19.4693 111.956 19.224 113.087 19.224C114.153 19.224 115.124 19.4693 115.999 19.96C116.873 20.4293 117.567 21.1013 118.079 21.976C118.591 22.8293 118.847 23.864 118.847 25.08V35H114.655ZM124.735 35V25.88C124.735 24.984 124.447 24.2907 123.871 23.8C123.316 23.288 122.623 23.032 121.791 23.032C121.257 23.032 120.756 23.1493 120.287 23.384C119.839 23.5973 119.487 23.9173 119.231 24.344C118.975 24.7707 118.847 25.2827 118.847 25.88L116.447 25.304C116.532 24.0667 116.863 23 117.439 22.104C118.015 21.1867 118.772 20.4827 119.711 19.992C120.649 19.48 121.695 19.224 122.847 19.224C123.999 19.224 125.033 19.4693 125.951 19.96C126.868 20.4293 127.593 21.112 128.127 22.008C128.66 22.904 128.927 23.9707 128.927 25.208V35H124.735ZM139.717 35.32C138.095 35.32 136.655 34.9787 135.397 34.296C134.138 33.592 133.135 32.632 132.389 31.416C131.663 30.2 131.301 28.8133 131.301 27.256C131.301 25.72 131.653 24.3547 132.357 23.16C133.082 21.944 134.063 20.984 135.301 20.28C136.538 19.5547 137.914 19.192 139.429 19.192C140.922 19.192 142.234 19.5333 143.365 20.216C144.517 20.8773 145.413 21.7947 146.053 22.968C146.714 24.12 147.045 25.432 147.045 26.904C147.045 27.1813 147.023 27.4693 146.981 27.768C146.959 28.0453 146.906 28.3653 146.821 28.728L133.829 28.76V25.624L144.869 25.592L143.173 26.904C143.13 25.9867 142.959 25.2187 142.661 24.6C142.383 23.9813 141.967 23.512 141.413 23.192C140.879 22.8507 140.218 22.68 139.429 22.68C138.597 22.68 137.871 22.872 137.253 23.256C136.634 23.6187 136.154 24.1413 135.813 24.824C135.493 25.4853 135.333 26.2747 135.333 27.192C135.333 28.1307 135.503 28.952 135.845 29.656C136.207 30.3387 136.719 30.872 137.381 31.256C138.042 31.6187 138.81 31.8 139.685 31.8C140.474 31.8 141.189 31.672 141.829 31.416C142.469 31.1387 143.023 30.7333 143.493 30.2L145.957 32.664C145.21 33.5387 144.293 34.2 143.205 34.648C142.138 35.096 140.975 35.32 139.717 35.32ZM149.637 35V19.544H153.861V35H149.637ZM151.749 17.048C151.067 17.048 150.501 16.824 150.053 16.376C149.605 15.9067 149.381 15.3307 149.381 14.648C149.381 13.9867 149.605 13.4213 150.053 12.952C150.501 12.4827 151.067 12.248 151.749 12.248C152.453 12.248 153.019 12.4827 153.445 12.952C153.893 13.4213 154.117 13.9867 154.117 14.648C154.117 15.3307 153.893 15.9067 153.445 16.376C153.019 16.824 152.453 17.048 151.749 17.048ZM162.887 35.352C162.012 35.352 161.148 35.2347 160.295 35C159.463 34.7653 158.695 34.4453 157.991 34.04C157.287 33.6133 156.679 33.1013 156.167 32.504L158.663 29.976C159.196 30.5733 159.815 31.0213 160.519 31.32C161.223 31.6187 162.001 31.768 162.855 31.768C163.537 31.768 164.049 31.672 164.391 31.48C164.753 31.288 164.935 31 164.935 30.616C164.935 30.1893 164.743 29.8587 164.359 29.624C163.996 29.3893 163.516 29.1973 162.919 29.048C162.321 28.8773 161.692 28.696 161.031 28.504C160.391 28.2907 159.772 28.024 159.175 27.704C158.577 27.3627 158.087 26.904 157.703 26.328C157.34 25.7307 157.159 24.9627 157.159 24.024C157.159 23.0427 157.393 22.1893 157.863 21.464C158.353 20.7387 159.047 20.1733 159.943 19.768C160.839 19.3627 161.895 19.16 163.111 19.16C164.391 19.16 165.543 19.384 166.567 19.832C167.612 20.28 168.476 20.952 169.159 21.848L166.631 24.376C166.161 23.8 165.628 23.384 165.031 23.128C164.455 22.872 163.825 22.744 163.143 22.744C162.524 22.744 162.044 22.84 161.703 23.032C161.383 23.224 161.223 23.4907 161.223 23.832C161.223 24.216 161.404 24.5147 161.767 24.728C162.151 24.9413 162.641 25.1333 163.239 25.304C163.836 25.4533 164.455 25.6347 165.095 25.848C165.756 26.04 166.375 26.3173 166.951 26.68C167.548 27.0427 168.028 27.5227 168.391 28.12C168.775 28.7173 168.967 29.4853 168.967 30.424C168.967 31.9387 168.423 33.144 167.335 34.04C166.247 34.9147 164.764 35.352 162.887 35.352ZM174.066 35V13.112H178.258V35H174.066ZM170.45 23.224V19.544H181.874V23.224H170.45ZM191.248 35.32C189.627 35.32 188.187 34.9787 186.928 34.296C185.669 33.592 184.667 32.632 183.92 31.416C183.195 30.2 182.832 28.8133 182.832 27.256C182.832 25.72 183.184 24.3547 183.888 23.16C184.613 21.944 185.595 20.984 186.832 20.28C188.069 19.5547 189.445 19.192 190.96 19.192C192.453 19.192 193.765 19.5333 194.896 20.216C196.048 20.8773 196.944 21.7947 197.584 22.968C198.245 24.12 198.576 25.432 198.576 26.904C198.576 27.1813 198.555 27.4693 198.512 27.768C198.491 28.0453 198.437 28.3653 198.352 28.728L185.36 28.76V25.624L196.4 25.592L194.704 26.904C194.661 25.9867 194.491 25.2187 194.192 24.6C193.915 23.9813 193.499 23.512 192.944 23.192C192.411 22.8507 191.749 22.68 190.96 22.68C190.128 22.68 189.403 22.872 188.784 23.256C188.165 23.6187 187.685 24.1413 187.344 24.824C187.024 25.4853 186.864 26.2747 186.864 27.192C186.864 28.1307 187.035 28.952 187.376 29.656C187.739 30.3387 188.251 30.872 188.912 31.256C189.573 31.6187 190.341 31.8 191.216 31.8C192.005 31.8 192.72 31.672 193.36 31.416C194 31.1387 194.555 30.7333 195.024 30.2L197.488 32.664C196.741 33.5387 195.824 34.2 194.736 34.648C193.669 35.096 192.507 35.32 191.248 35.32ZM201.169 35V19.544H205.361V35H201.169ZM205.361 26.456L203.729 25.368C203.921 23.4693 204.475 21.976 205.393 20.888C206.31 19.7787 207.633 19.224 209.361 19.224C210.107 19.224 210.779 19.352 211.377 19.608C211.974 19.8427 212.518 20.2373 213.009 20.792L210.385 23.8C210.15 23.544 209.862 23.352 209.521 23.224C209.201 23.096 208.827 23.032 208.401 23.032C207.505 23.032 206.769 23.32 206.193 23.896C205.638 24.4507 205.361 25.304 205.361 26.456Z" fill="black"/>
</svg>
